<?xml version="1.0" ?><svg viewBox="0 0 32 32" xmlns="http://www.w3.org/2000/svg"><title/><g id="Home"><path d="M27.62,9l-9-5.54a5,5,0,0,0-5.24,0L4.38,9A5,5,0,0,0,2,13.24V16a1,1,0,0,0,1,1H5v8a4.83,4.83,0,0,0,4.64,5H22.36A4.83,4.83,0,0,0,27,25V17h2a1,1,0,0,0,1-1V13.24A5,5,0,0,0,27.62,9ZM12,28V25a3,3,0,0,1,3-3h2a3,3,0,0,1,3,3v3ZM28,15H26a1,1,0,0,0-1,1v9a2.84,2.84,0,0,1-2.64,3H22V25a5,5,0,0,0-5-5H15a5,5,0,0,0-5,5v3H9.64A2.84,2.84,0,0,1,7,25V16a1,1,0,0,0-1-1H4V13.24a3,3,0,0,1,1.43-2.56l9-5.54a3,3,0,0,1,3.14,0l9,5.54A3,3,0,0,1,28,13.24Z"/></g></svg>